<svg width="154" height="46" viewBox="0 0 154 46" fill="none" xmlns="http://www.w3.org/2000/svg">
<path fill-rule="evenodd" clip-rule="evenodd" d="M10 0H144C149.523 0 154 4.47715 154 10V36C154 41.5228 149.523 46 144 46H10C4.47715 46 0 41.5228 0 36V10C0 4.47715 4.47715 0 10 0ZM10 2C5.58172 2 2 5.58172 2 10V36C2 40.4183 5.58172 44 10 44H144C148.418 44 152 40.4183 152 36V10C152 5.58172 148.418 2 144 2H10Z" fill="white"/>
<path fill-rule="evenodd" clip-rule="evenodd" d="M16 16H28C30.2092 16 32 17.7908 32 20C32 20.9797 31.6479 21.877 31.0632 22.5724C32.2239 23.2726 33 24.5457 33 26C33 28.2092 31.2092 30 29 30H16V16ZM26 19H21V21H26C26.5523 21 27 20.5523 27 20C27 19.4477 26.5523 19 26 19ZM21 25H27C27.5523 25 28 25.4477 28 26C28 26.5523 27.5523 27 27 27H21V25Z" fill="white"/>
<path fill-rule="evenodd" clip-rule="evenodd" d="M35 16H62C64.7614 16 67 18.2386 67 21C67 22.7948 66.0544 24.3687 64.6342 25.2506L66.5 30H61L59.4286 26H40V30H35V16ZM61 22H40V20H61C61.5523 20 62 20.4477 62 21C62 21.5523 61.5523 22 61 22Z" fill="white"/>
<path d="M86 16V22.8817C86 27.6732 83.4307 30 77.5 30C71.55 30 69 27.693 69 22.8817V16H74.0227V22.8817C74.0227 24.3606 74.5443 25.662 77.5 25.662C80.4557 25.662 80.9773 24.3408 80.9773 22.8817V16H86Z" fill="white"/>
<path d="M88 16H105V20H99V30H94V20H88V16Z" fill="white"/>
<path d="M138 26H129V16H124V30H138V26Z" fill="white"/>
<path fill-rule="evenodd" clip-rule="evenodd" d="M108.5 16H116.5L122 30H116.5L115.714 28H109.286L108.5 30H103L108.5 16ZM112.5 19.8182L114.143 24H110.857L112.5 19.8182Z" fill="white"/>
</svg>
