<svg width="154" height="182" viewBox="0 0 154 182" fill="none" xmlns="http://www.w3.org/2000/svg">
<path fill-rule="evenodd" clip-rule="evenodd" d="M137.01 88C136.12 92.9 134.64 97.59 132.66 102L21.34 102C19.35 97.59 17.88 92.9 16.99 88L137.01 88Z" fill="white"/>
<path fill-rule="evenodd" clip-rule="evenodd" d="M120.27 120H33.7399C29.6399 115.87 26.1199 111.16 23.3299 106L130.68 106C127.89 111.16 124.37 115.87 120.27 120Z" fill="white"/>
<path fill-rule="evenodd" clip-rule="evenodd" d="M115.89 124C105.33 132.74 91.7799 138 76.9999 138C62.2199 138 48.6699 132.74 38.1099 124H115.89Z" fill="white"/>
<path fill-rule="evenodd" clip-rule="evenodd" d="M137.01 66L16.99 66C17.88 61.1 19.36 56.41 21.34 52L132.66 52C134.64 56.41 136.12 61.1 137.01 66Z" fill="white"/>
<path fill-rule="evenodd" clip-rule="evenodd" d="M120.27 34C124.37 38.13 127.89 42.84 130.68 48L23.3199 48C26.1099 42.84 29.6299 38.13 33.7299 34L120.27 34Z" fill="white"/>
<path fill-rule="evenodd" clip-rule="evenodd" d="M76.9999 16C91.7799 16 105.33 21.26 115.89 30L38.1199 30C48.6699 21.26 62.2199 16 76.9999 16Z" fill="white"/>
<path d="M16.3973 70C16.1349 72.297 16 74.6327 16 77C16 79.3672 16.1349 81.703 16.3973 84L137.603 84C137.865 81.703 138 79.3673 138 77C138 74.6328 137.865 72.297 137.603 70L16.3973 70Z" fill="white"/>
<path d="M86 158.88V152H80.98V158.88C80.98 160.34 80.46 161.66 77.5 161.66C74.54 161.66 74.02 160.36 74.02 158.88V152H69V158.88C69 163.69 71.55 166 77.5 166C83.43 166 86 163.67 86 158.88Z" fill="white"/>
<path d="M105 152H88V156H94V166H99V156H105V152Z" fill="white"/>
<path d="M129 162V152H124V166H138V162H129Z" fill="white"/>
<path d="M67 157C67 154.24 64.76 152 62 152H40H35V162V166H40V162H59.43L61 166H66.5L64.63 161.24C66.05 160.35 67 158.79 67 157ZM40 156H61C61.55 156 62 156.45 62 157C62 157.55 61.55 158 61 158H40V156Z" fill="white"/>
<path d="M116.5 166H122L116.5 152H114H111H108.5L103 166H108.5L109.29 164H115.72L116.5 166ZM110.86 160L112.5 155.82L114.14 160H110.86Z" fill="white"/>
<path fill-rule="evenodd" clip-rule="evenodd" d="M28 152H16V166H29C31.21 166 33 164.21 33 162C33 160.55 32.22 159.27 31.06 158.57C31.65 157.88 32 156.98 32 156C32 153.79 30.21 152 28 152ZM21 155H26C26.55 155 27 155.45 27 156C27 156.55 26.55 157 26 157H21V155ZM27 161H21V163H27C27.55 163 28 162.55 28 162C28 161.45 27.55 161 27 161Z" fill="white"/>
<rect x="1" y="1" width="152" height="180" rx="9" stroke="white" stroke-width="2"/>
</svg>
